<svg xmlns="http://www.w3.org/2000/svg" viewBox="0 0 102.55 102.55">
    <defs>
        <style>
            .cls-2{fill:#f58320}
        </style>
    </defs>
    <g id="Layer_2" data-name="Layer 2">
        <g fill="none" stroke="currentColor" stroke-linecap="round" stroke-linejoin="round" stroke-width="2">
            <path stroke="white" stroke-width="6" d="M22.5 52.5h3m24-27v3m24 24h3M30.3 33.3l2.1 2.1m36.3-2.1-2.1 2.1"/>
            <path stroke="#f58320" stroke-width="6" d="M40.5 64.5a15 15 0 1 1 18 0 10.5 10.5 0 0 0-3 9 6 6 0 0 1-12 0 10.5 10.5 0 0 0-3-9m2.1 3h13.8"/>
        </g>
        <g id="Layer_1-2" data-name="Layer 1">
            <path d="M27.75 90.64A43.45 43.45 0 0 1 18 83a10.87 10.87 0 0 1-3 2.6 11 11 0 0 1-2 .88 49.45 49.45 0 0 0 60.7 9.71 3.05 3.05 0 0 0 0-5.29 3 3 0 0 0-3-.05 43.3 43.3 0 0 1-42.95-.21Zm-.01-74.96a43.21 43.21 0 0 1 11.52-4.59 10.91 10.91 0 0 1-.76-4 11.4 11.4 0 0 1 .22-2.2A49.44 49.44 0 0 0 0 52.62a3.06 3.06 0 0 0 4.59 2.64 3 3 0 0 0 1.53-2.56 43.3 43.3 0 0 1 21.62-37.02Zm64.91 37.48a43.28 43.28 0 0 1-1.78 12.27 10.86 10.86 0 0 1 3.82 1.32A12.16 12.16 0 0 1 96.48 68a49.45 49.45 0 0 0-22-57.38 3.06 3.06 0 0 0-4.48 2.7 3 3 0 0 0 1.45 2.6 43.29 43.29 0 0 1 21.2 37.24Z" style="fill:white"/>
            <circle cx="49.38" cy="7.12" r="7.12" class="cls-2"/>
            <circle cx="9.51" cy="76.17" r="7.12" class="cls-2"/>
            <circle cx="89.25" cy="76.17" r="7.12" class="cls-2"/>
        </g>
    </g>
</svg>
